<mxfile host="Electron" modified="2023-11-06T17:05:28.006Z" agent="Mozilla/5.0 (Windows NT 10.0; Win64; x64) AppleWebKit/537.36 (KHTML, like Gecko) draw.io/21.6.8 Chrome/114.0.5735.289 Electron/25.5.0 Safari/537.36" etag="rxG4y8tzlzjx4roTtwdG" version="21.6.8" type="device">
  <diagram name="Page-1" id="LwNJg8m6fmZp2kFzhN1E">
    <mxGraphModel dx="377" dy="588" grid="1" gridSize="10" guides="1" tooltips="1" connect="1" arrows="1" fold="1" page="1" pageScale="1" pageWidth="827" pageHeight="1169" math="0" shadow="0">
      <root>
        <mxCell id="0" />
        <mxCell id="1" parent="0" />
        <mxCell id="9EP2e786v82oXoPWI4vN-3" style="edgeStyle=orthogonalEdgeStyle;rounded=0;orthogonalLoop=1;jettySize=auto;html=1;" edge="1" parent="1" source="9EP2e786v82oXoPWI4vN-1" target="9EP2e786v82oXoPWI4vN-2">
          <mxGeometry relative="1" as="geometry" />
        </mxCell>
        <mxCell id="9EP2e786v82oXoPWI4vN-1" value="" style="shape=ellipse;html=1;fillColor=strokeColor;fontSize=18;fontColor=#ffffff;" vertex="1" parent="1">
          <mxGeometry x="240" y="81" width="40" height="40" as="geometry" />
        </mxCell>
        <mxCell id="9EP2e786v82oXoPWI4vN-2" value="void _start() / startFlag.set()&lt;br&gt;void receivePostGameData(PostGameData_t&amp;amp;)" style="shape=rect;rounded=1;html=1;whiteSpace=wrap;align=left;spacingLeft=10;" vertex="1" parent="1">
          <mxGeometry x="350" y="70" width="280" height="62" as="geometry" />
        </mxCell>
        <mxCell id="9EP2e786v82oXoPWI4vN-6" style="edgeStyle=orthogonalEdgeStyle;rounded=0;orthogonalLoop=1;jettySize=auto;html=1;" edge="1" parent="1" source="9EP2e786v82oXoPWI4vN-4" target="9EP2e786v82oXoPWI4vN-5">
          <mxGeometry relative="1" as="geometry" />
        </mxCell>
        <mxCell id="9EP2e786v82oXoPWI4vN-4" value="" style="shape=ellipse;html=1;fillColor=strokeColor;fontSize=18;fontColor=#ffffff;" vertex="1" parent="1">
          <mxGeometry x="400" y="200" width="40" height="40" as="geometry" />
        </mxCell>
        <mxCell id="9EP2e786v82oXoPWI4vN-12" value="startFlag" style="edgeStyle=orthogonalEdgeStyle;rounded=0;orthogonalLoop=1;jettySize=auto;html=1;" edge="1" parent="1" source="9EP2e786v82oXoPWI4vN-5" target="9EP2e786v82oXoPWI4vN-10">
          <mxGeometry x="-0.2" y="30" relative="1" as="geometry">
            <mxPoint as="offset" />
          </mxGeometry>
        </mxCell>
        <mxCell id="9EP2e786v82oXoPWI4vN-5" value="Idle" style="shape=rect;rounded=1;html=1;whiteSpace=wrap;align=center;" vertex="1" parent="1">
          <mxGeometry x="370" y="300" width="100" height="40" as="geometry" />
        </mxCell>
        <mxCell id="9EP2e786v82oXoPWI4vN-16" value="player = 0" style="edgeStyle=orthogonalEdgeStyle;rounded=0;orthogonalLoop=1;jettySize=auto;html=1;" edge="1" parent="1" source="9EP2e786v82oXoPWI4vN-10" target="9EP2e786v82oXoPWI4vN-19">
          <mxGeometry relative="1" as="geometry">
            <mxPoint x="420" y="510" as="targetPoint" />
          </mxGeometry>
        </mxCell>
        <mxCell id="9EP2e786v82oXoPWI4vN-10" value="&lt;p style=&quot;margin:0px;margin-top:4px;text-align:center;&quot;&gt;GetPostGameData&lt;/p&gt;&lt;hr&gt;&lt;p&gt;&lt;/p&gt;&lt;p style=&quot;margin:0px;margin-left:8px;text-align:left;&quot;&gt;ConnectControl.getPostGameData()&lt;/p&gt;" style="shape=mxgraph.sysml.simpleState;html=1;overflow=fill;whiteSpace=wrap;align=center;" vertex="1" parent="1">
          <mxGeometry x="310" y="390" width="220" height="70" as="geometry" />
        </mxCell>
        <mxCell id="9EP2e786v82oXoPWI4vN-11" value="State1" style="shape=rect;rounded=1;html=1;whiteSpace=wrap;align=center;" vertex="1" parent="1">
          <mxGeometry x="680" y="330" width="100" height="40" as="geometry" />
        </mxCell>
        <mxCell id="9EP2e786v82oXoPWI4vN-18" value="playerHits = temp_data[player].hits" style="edgeStyle=orthogonalEdgeStyle;rounded=0;orthogonalLoop=1;jettySize=auto;html=1;" edge="1" parent="1" source="9EP2e786v82oXoPWI4vN-19" target="9EP2e786v82oXoPWI4vN-17">
          <mxGeometry x="0.1429" y="90" relative="1" as="geometry">
            <mxPoint x="420" y="550" as="sourcePoint" />
            <mxPoint as="offset" />
          </mxGeometry>
        </mxCell>
        <mxCell id="9EP2e786v82oXoPWI4vN-17" value="" style="rhombus;whiteSpace=wrap;html=1;" vertex="1" parent="1">
          <mxGeometry x="400" y="650" width="40" height="40" as="geometry" />
        </mxCell>
        <mxCell id="9EP2e786v82oXoPWI4vN-19" value="&lt;p style=&quot;margin:0px;margin-top:4px;text-align:center;&quot;&gt;CrunchData&lt;/p&gt;&lt;hr&gt;&lt;p&gt;&lt;/p&gt;&lt;p style=&quot;margin:0px;margin-left:8px;text-align:left;&quot;&gt;hitNum = sizeof(hits)&lt;br&gt;&lt;/p&gt;" style="shape=mxgraph.sysml.simpleState;html=1;overflow=fill;whiteSpace=wrap;align=center;" vertex="1" parent="1">
          <mxGeometry x="310" y="510" width="220" height="70" as="geometry" />
        </mxCell>
      </root>
    </mxGraphModel>
  </diagram>
</mxfile>
